<svg width="46" height="45" viewBox="0 0 46 45" fill="none" xmlns="http://www.w3.org/2000/svg">
<path d="M0 22.5C0 12.6376 0 7.70633 2.72387 4.38728C3.22253 3.77967 3.77967 3.22253 4.38728 2.72387C7.70633 0 12.6376 0 22.5 0H23.5C33.3624 0 38.2937 0 41.6127 2.72387C42.2203 3.22253 42.7775 3.77967 43.2761 4.38728C46 7.70633 46 12.6376 46 22.5C46 32.3624 46 37.2937 43.2761 40.6127C42.7775 41.2203 42.2203 41.7775 41.6127 42.2761C38.2937 45 33.3624 45 23.5 45H22.5C12.6376 45 7.70633 45 4.38728 42.2761C3.77967 41.7775 3.22253 41.2203 2.72387 40.6127C0 37.2937 0 32.3624 0 22.5Z" fill="white"/>
<path d="M22.6665 28.333C26.3483 28.333 29.333 25.3483 29.333 21.6665C29.333 17.9847 26.3483 15 22.6665 15C18.9847 15 16 17.9847 16 21.6665C16 25.3483 18.9847 28.333 22.6665 28.333Z" stroke="#170312" stroke-width="2" stroke-linejoin="round"/>
<path d="M30.9999 29.9999L27.375 26.375" stroke="#170312" stroke-width="2" stroke-linejoin="round"/>
</svg>
