<svg width="40" height="40" viewBox="0 0 40 40" fill="none" xmlns="http://www.w3.org/2000/svg">
<rect width="40" height="40" rx="8" fill="#FF4646"/>
<rect width="40" height="40" rx="8" fill="#1F4F69" fill-opacity="0.1"/>
<path d="M15.0513 15.0503C13.7386 16.363 13.0011 18.1435 13.0011 20C13.0011 21.8565 13.7386 23.637 15.0513 24.9497C16.3641 26.2625 18.1445 27 20.0011 27C21.8576 27 23.638 26.2625 24.9508 24.9497C26.2636 23.637 27.0011 21.8565 27.0011 20C27.0011 18.1435 26.2636 16.363 24.9508 15.0503C23.638 13.7375 21.8576 13 20.0011 13C18.1445 13 16.3641 13.7375 15.0513 15.0503V15.0503Z" stroke="white" stroke-width="1.5" stroke-linecap="round" stroke-linejoin="round"/>
<path d="M15.0508 24.9492L24.9503 15.0497" stroke="white" stroke-width="1.5" stroke-linecap="square" stroke-linejoin="round"/>
</svg>
