<svg width="12" height="14" viewBox="0 0 12 14" fill="none" xmlns="http://www.w3.org/2000/svg">
<path d="M9.94271 14H2.16493C1.75237 14 1.35671 13.8361 1.06499 13.5444C0.773263 13.2527 0.609375 12.857 0.609375 12.4444V1.55556C0.609375 1.143 0.773263 0.747335 1.06499 0.455612C1.35671 0.163888 1.75237 0 2.16493 0H7.60937L11.4983 3.88889V12.4444C11.4983 12.857 11.3344 13.2527 11.0427 13.5444C10.7509 13.8361 10.3553 14 9.94271 14Z" fill="#0580C3"/>
<path opacity="0.5" d="M7.60938 0V3.11111C7.60938 3.31739 7.69132 3.51522 7.83718 3.66108C7.98304 3.80694 8.18087 3.88889 8.38715 3.88889H11.4983" fill="#E6F3F9"/>
<path d="M6.05469 6.22266V10.8893" stroke="white" stroke-width="1.5" stroke-linecap="round" stroke-linejoin="round"/>
<path d="M3.72266 8.55664L6.05599 10.89L8.38932 8.55664" stroke="white" stroke-width="1.5" stroke-linecap="round" stroke-linejoin="round"/>
</svg>
