<svg width="40" height="40" viewBox="0 0 40 40" fill="none" xmlns="http://www.w3.org/2000/svg">
<rect opacity="0.1" width="40" height="40" rx="8" fill="#54BD8A"/>
<path d="M28 19.2686V20.0046C27.999 21.7297 27.4404 23.4083 26.4075 24.79C25.3745 26.1717 23.9226 27.1826 22.2683 27.6717C20.6139 28.1608 18.8458 28.1021 17.2276 27.5042C15.6093 26.9064 14.2277 25.8014 13.2888 24.3542C12.3498 22.907 11.9038 21.195 12.0173 19.4736C12.1308 17.7522 12.7978 16.1136 13.9186 14.8022C15.0395 13.4908 16.5542 12.5769 18.2369 12.1967C19.9197 11.8165 21.6802 11.9904 23.256 12.6926" stroke="#54BD8A" stroke-width="1.5"/>
<path d="M27.9976 13.6055L19.9977 21.6135L17.5977 19.2135" stroke="#54BD8A" stroke-width="1.5"/>
</svg>
