<svg width="16" height="14" viewBox="0 0 16 14" fill="none" xmlns="http://www.w3.org/2000/svg">
<path d="M1.50108 0H14.5011C14.6451 0.0505085 14.7756 0.133311 14.8827 0.242064C14.9898 0.350817 15.0706 0.482635 15.1188 0.627421C15.1671 0.772207 15.1816 0.926119 15.1612 1.07737C15.1407 1.22861 15.086 1.37318 15.0011 1.5L10.0011 7V14L6.00108 11V7L1.00108 1.5C0.916175 1.37318 0.861419 1.22861 0.841012 1.07737C0.820604 0.926119 0.835086 0.772207 0.883348 0.627421C0.93161 0.482635 1.01237 0.350817 1.11945 0.242064C1.22652 0.133311 1.35707 0.0505085 1.50108 0Z" fill="#0580C3"/>
</svg>
