<svg width="16" height="16" viewBox="0 0 16 16" fill="none" xmlns="http://www.w3.org/2000/svg">
<path d="M13.25 1H2.75C2.28587 1 1.84075 1.18437 1.51256 1.51256C1.18437 1.84075 1 2.28587 1 2.75V13.25C1 13.7141 1.18437 14.1592 1.51256 14.4874C1.84075 14.8156 2.28587 15 2.75 15H13.25C13.7141 15 14.1592 14.8156 14.4874 14.4874C14.8156 14.1592 15 13.7141 15 13.25V2.75C15 2.28587 14.8156 1.84075 14.4874 1.51256C14.1592 1.18437 13.7141 1 13.25 1V1Z" fill="#0580C3"/>
<path d="M1 6.25H15" stroke="white" stroke-width="1.5" stroke-linejoin="round"/>
<path d="M6.25 1V15" stroke="white" stroke-width="1.5" stroke-linejoin="round"/>
</svg>
