<svg width="181" height="136" viewBox="0 0 181 136" fill="none" xmlns="http://www.w3.org/2000/svg">
<g opacity="0.5" filter="url(#filter0_f_215_2354)">
<mask id="mask0_215_2354" style="mask-type:alpha" maskUnits="userSpaceOnUse" x="37" y="27" width="161" height="146">
<path d="M129.016 37.9403L193.881 130.684C200.322 139.893 197.9 152.498 188.47 158.838C183.476 162.196 177.238 163.249 171.401 161.722C136.454 152.577 99.2928 155.737 66.3916 170.652C56.0145 175.356 43.7378 170.946 38.9708 160.804C36.4461 155.432 36.4542 149.239 38.993 143.855L87.2671 41.4905C92.8508 29.6504 107.165 24.449 119.238 29.8729C123.184 31.6459 126.563 34.4337 129.016 37.9403Z" fill="white"/>
</mask>
<g mask="url(#mask0_215_2354)">
<path d="M129.016 37.9403L193.881 130.684C200.322 139.893 197.9 152.498 188.47 158.838C183.476 162.196 177.238 163.249 171.401 161.722C136.454 152.577 99.2928 155.737 66.3916 170.652C56.0145 175.356 43.7378 170.946 38.9708 160.804C36.4461 155.432 36.4542 149.239 38.993 143.855L87.2671 41.4905C92.8508 29.6504 107.165 24.449 119.238 29.8729C123.184 31.6459 126.563 34.4337 129.016 37.9403Z" fill="url(#paint0_linear_215_2354)"/>
<path d="M167.019 90.952L251.448 206.72C255.467 212.231 254.151 219.904 248.507 223.859C246.671 225.146 244.517 225.926 242.271 226.117L158.667 233.226L75.0636 240.336C68.1594 240.923 62.0967 235.921 61.522 229.163C61.3351 226.965 61.7568 224.755 62.7428 222.767L126.412 94.4051C132.136 82.8636 146.317 78.017 158.084 83.5801C161.648 85.2649 164.72 87.7995 167.019 90.952Z" fill="url(#paint1_linear_215_2354)"/>
</g>
</g>
<defs>
<filter id="filter0_f_215_2354" x="0.0830078" y="-9.27539" width="234.403" height="218.811" filterUnits="userSpaceOnUse" color-interpolation-filters="sRGB">
<feFlood flood-opacity="0" result="BackgroundImageFix"/>
<feBlend mode="normal" in="SourceGraphic" in2="BackgroundImageFix" result="shape"/>
<feGaussianBlur stdDeviation="18.5" result="effect1_foregroundBlur_215_2354"/>
</filter>
<linearGradient id="paint0_linear_215_2354" x1="110.037" y1="61.9822" x2="164.147" y2="153.269" gradientUnits="userSpaceOnUse">
<stop stop-color="#02A7E3"/>
<stop offset="1" stop-color="#0676BB"/>
</linearGradient>
<linearGradient id="paint1_linear_215_2354" x1="152.211" y1="157.294" x2="147.587" y2="102.918" gradientUnits="userSpaceOnUse">
<stop stop-color="#02A6E2"/>
<stop offset="1" stop-color="white" stop-opacity="0.561926"/>
</linearGradient>
</defs>
</svg>
